#!OML:ASF H:\Dans Jumps\Project 1\Capture day 1\Session 1\subject.ASF
:FULLY-SPECIFIED
:DEGREES
387
root 0.504723 17.1833 9.35073 5.80292 -1.62375 -3.0568
lowerback 8.44429 1.82943 -1.56798
upperback 3.92971 2.31954 1.04066
thorax -0.770254 1.13123 1.74392
lowerneck -9.27974 -1.1435 -0.48777
upperneck 23.6568 -2.34155 3.55249
head 8.97056 -0.768745 1.04884
rclavicle 3.62782e-015 7.95139e-016
rhumerus -23.8795 -1.85487 -84.0836
rradius 37.9296
rwrist 34.4534
rhand -19.7547 -29.0289
rfingers 7.12502
rthumb 6.57662 -58.9068
lclavicle 3.62782e-015 7.95139e-016
lhumerus -36.8016 -13.5999 91.6824
lradius 37.0277
lwrist 33.4894
lhand -27.6402 -10.3003
lfingers 7.12502
lthumb -1.03844 19.6769
rfemur -31.4974 -1.19627 23.0961
rtibia 35.7026
rfoot -8.2229 1.80296
rtoes 13.9299
lfemur -31.7888 6.37224 -16.8886
ltibia 40.1262
lfoot -6.08992 6.23527
ltoes -8.16209
388
root 0.509461 17.2907 9.42854 6.15699 -1.63438 -3.12098
lowerback 8.07737 1.80083 -1.51323
upperback 3.89243 2.29046 1.01254
thorax -0.602482 1.11656 1.6975
lowerneck -9.13246 -1.13975 -0.30045
upperneck 23.4871 -2.33822 3.44252
head 8.88103 -0.766187 0.979577
rclavicle 1.37161e-014 7.95139e-016
rhumerus -24.1871 -1.63837 -84.1396
rradius 38.0089
rwrist 34.3177
rhand -19.7458 -28.8584
rfingers 7.12502
rthumb 6.58523 -58.736
lclavicle 1.37161e-014 7.95139e-016
lhumerus -37.2195 -13.4222 92.0643
lradius 37.1664
lwrist 34.5516
lhand -27.2019 -10.817
lfingers 7.12502
lthumb -0.615117 19.1618
rfemur -30.3767 -1.26983 23.137
rtibia 33.669
rfoot -7.70904 1.85929
rtoes 13.9364
lfemur -30.9792 6.21574 -16.8571
ltibia 38.4654
lfoot -5.33237 6.23381
ltoes -7.35601
389
root 0.512006 17.3927 9.50521 6.53049 -1.59898 -3.17463
lowerback 7.64531 1.76317 -1.45836
upperback 3.83109 2.24995 0.982054
thorax -0.422886 1.0964 1.65087
lowerneck -8.99987 -1.14293 -0.182086
upperneck 23.3727 -2.34768 3.39323
head 8.81527 -0.76852 0.941774
rclavicle -9.44227e-015 2.5842e-015
rhumerus -24.5695 -1.37328 -84.2038
rradius 38.1385
rwrist 34.2123
rhand -19.7216 -28.716
rfingers 7.12502
rthumb 6.60863 -58.5929
lclavicle -9.44227e-015 2.5842e-015
lhumerus -37.7187 -13.4937 92.5109
lradius 37.196
lwrist 34.6083
lhand -27.0299 -10.9149
lfingers 7.12502
lthumb -0.448941 19.0643
rfemur -29.3084 -1.36632 23.1815
rtibia 31.7474
rfoot -7.24099 1.83822
rtoes 13.8982
lfemur -30.2656 6.05803 -16.8439
ltibia 36.8922
lfoot -4.59862 6.23133
ltoes -6.35804
390
root 0.512428 17.4878 9.5815 6.92866 -1.52863 -3.21513
lowerback 7.12815 1.72127 -1.40871
upperback 3.74924 2.20422 0.95026
thorax -0.217095 1.0736 1.60806
lowerneck -8.91107 -1.15489 -0.157691
upperneck 23.3387 -2.37425 3.42544
head 8.78777 -0.777129 0.946093
rclavicle -1.49089e-014 -5.1684e-015
rhumerus -25.0196 -1.10654 -84.266
rradius 38.3248
rwrist 34.1113
rhand -19.686 -28.6005
rfingers 7.12502
rthumb 6.64291 -58.4763
lclavicle -1.49089e-014 -5.1684e-015
lhumerus -38.2786 -13.7849 93.0201
lradius 37.1015
lwrist 33.7082
lhand -27.1833 -10.7347
lfingers 7.12502
lthumb -0.597152 19.2442
rfemur -28.3145 -1.49161 23.2348
rtibia 29.9822
rfoot -6.81997 1.75371
rtoes 13.9361
lfemur -29.6383 5.89615 -16.8442
ltibia 35.3946
lfoot -3.90645 6.2355
ltoes -5.27145
391
root 0.511158 17.5747 9.65848 7.35211 -1.42936 -3.23801
lowerback 6.52545 1.67692 -1.37116
upperback 3.64302 2.15521 0.91878
thorax 0.0110297 1.04906 1.57421
lowerneck -8.85854 -1.17541 -0.227262
upperneck 23.3828 -2.41575 3.53033
head 8.79614 -0.791972 0.989725
rclavicle 1.63997e-014 -8.54774e-015
rhumerus -25.5357 -0.864407 -84.3167
rradius 38.5614
rwrist 33.97
rhand -19.6397 -28.508
rfingers 7.12502
rthumb 6.68768 -58.3824
lclavicle 1.63997e-014 -8.54774e-015
lhumerus -38.8935 -14.2185 93.5651
lradius 36.8882
lwrist 32.0126
lhand -27.5506 -10.4277
lfingers 7.12502
lthumb -0.951857 19.55
rfemur -27.4098 -1.66815 23.3001
rtibia 28.416
rfoot -6.45759 1.62799
rtoes 14.1321
lfemur -29.0861 5.73063 -16.8603
ltibia 33.9664
lfoot -3.27341 6.24619
ltoes -4.18107
392
root 0.508517 17.6517 9.73664 7.79019 -1.31594 -3.25188
lowerback 5.84313 1.63405 -1.34181
upperback 3.52328 2.10836 0.892372
thorax 0.269455 1.02531 1.55155
lowerneck -8.85929 -1.20021 -0.378135
upperneck 23.4987 -2.46545 3.69363
head 8.84108 -0.810119 1.06636
rclavicle -3.77194e-014 -1.59028e-015
rhumerus -26.0853 -0.669733 -84.3497
rradius 38.8259
rwrist 33.7737
rhand -19.6143 -28.4273
rfingers 7.12502
rthumb 6.71213 -58.3009
lclavicle -3.77194e-014 -1.59028e-015
lhumerus -39.5167 -14.7139 94.0984
lradius 36.574
lwrist 29.8134
lhand -27.9446 -9.97584
lfingers 7.12502
lthumb -1.33245 19.9997
rfemur -26.5921 -1.89195 23.3873
rtibia 27.0779
rfoot -6.16519 1.47896
rtoes 14.4824
lfemur -28.5905 5.57711 -16.8826
ltibia 32.6086
lfoot -2.71566 6.26599
ltoes -3.15391
393
root 0.504862 17.718 9.81594 8.22473 -1.19873 -3.25978
lowerback 5.10863 1.59486 -1.32269
upperback 3.39587 2.06621 0.875199
thorax 0.548937 1.00352 1.54463
lowerneck -8.90277 -1.22312 -0.555216
upperneck 23.6601 -2.5083 3.84979
head 8.90996 -0.826889 1.146
rclavicle -1.74931e-014 -6.55989e-015
rhumerus -26.6521 -0.518418 -84.3577
rradius 39.1085
rwrist 33.5053
rhand -19.5955 -28.366
rfingers 7.12502
rthumb 6.7303 -58.239
lclavicle -1.74931e-014 -6.55989e-015
lhumerus -40.1302 -15.1836 94.5825
lradius 36.2008
lwrist 27.4341
lhand -28.2433 -9.52941
lfingers 7.12502
lthumb -1.62088 20.4442
rfemur -25.8478 -2.15552 23.495
rtibia 25.9747
rfoot -5.96618 1.32616
rtoes 14.9134
lfemur -28.1301 5.45476 -16.9097
ltibia 31.3278
lfoot -2.251 6.28911
ltoes -2.24756
394
root 0.500673 17.7741 9.89646 8.62757 -1.09264 -3.26062
lowerback 4.35768 1.56284 -1.31346
upperback 3.26687 2.03312 0.865916
thorax 0.835911 0.985909 1.55087
lowerneck -8.95772 -1.23985 -0.708319
upperneck 23.8312 -2.53428 3.9507
head 8.98313 -0.839022 1.20471
rclavicle 3.23025e-015 0
rhumerus -27.2287 -0.424079 -84.3374
rradius 39.3977
rwrist 33.1993
rhand -19.5741 -28.3188
rfingers 7.12502
rthumb 6.75099 -58.1912
lclavicle 3.23025e-015 0
lhumerus -40.7189 -15.5886 94.9971
lradius 35.8117
lwrist 25.2321
lhand -28.3949 -9.16762
lfingers 7.12502
lthumb -1.76729 20.8048
rfemur -25.1395 -2.44329 23.6111
rtibia 25.0848
rfoot -5.87571 1.19025
rtoes 15.2913
lfemur -27.6738 5.39101 -16.9483
ltibia 30.1329
lfoot -1.89403 6.30932
ltoes -1.4796
395
root 0.496207 17.82 9.97735 8.96799 -1.00767 -3.25935
lowerback 3.64357 1.53996 -1.30567
upperback 3.14191 2.01145 0.862081
thorax 1.10672 0.973939 1.56175
lowerneck -9.0136 -1.25253 -0.829162
upperneck 23.9979 -2.54686 3.99554
head 9.05372 -0.847892 1.2403
rclavicle 2.61402e-014 -4.37326e-015
rhumerus -27.8013 -0.384397 -84.2939
rradius 39.6848
rwrist 32.8881
rhand -19.5414 -28.2907
rfingers 7.12502
rthumb 6.78252 -58.1621
lclavicle 2.61402e-014 -4.37326e-015
lhumerus -41.2776 -15.9163 95.3347
lradius 35.4425
lwrist 23.5138
lhand -28.3713 -8.93696
lfingers 7.12502
lthumb -1.74452 21.0357
rfemur -24.4241 -2.72234 23.7252
rtibia 24.3625
rfoot -5.90081 1.0814
rtoes 15.5609
lfemur -27.1896 5.41183 -16.9958
ltibia 29.0304
lfoot -1.64999 6.31207
ltoes -0.885516
396
root 0.491928 17.8567 10.0581 9.22315 -0.946217 -3.24728
lowerback 2.99788 1.52536 -1.29981
upperback 3.02677 1.99976 0.858369
thorax 1.34971 0.967006 1.57162
lowerneck -9.06383 -1.26121 -0.921536
upperneck 24.1573 -2.54803 3.99621
head 9.11963 -0.853711 1.25717
rclavicle -1.27719e-014 -1.98785e-015
rhumerus -28.3589 -0.401053 -84.2289
rradius 39.9556
rwrist 32.6033
rhand -19.501 -28.2729
rfingers 7.12502
rthumb 6.82152 -58.143
lclavicle -1.27719e-014 -1.98785e-015
lhumerus -41.8045 -16.154 95.5966
lradius 35.1296
lwrist 22.4591
lhand -28.2155 -8.76576
lfingers 7.12502
lthumb -1.59402 21.208
rfemur -23.6657 -2.97941 23.8142
rtibia 23.7513
rfoot -6.03205 1.01816
rtoes 15.6944
lfemur -26.6531 5.5296 -17.0637
ltibia 28.0217
lfoot -1.53112 6.2877
ltoes -0.406153
